<svg width="1412" height="172" viewBox="0 0 1412 172" fill="none" xmlns="http://www.w3.org/2000/svg">
<path d="M49.628 40.3104L68.4173 71.4009L103.792 63.1388L80.0298 90.616L98.8191 121.707L65.3436 107.598L41.581 135.075L44.6547 98.8781L11.1793 84.7694L46.5543 76.5072L49.628 40.3104Z" fill="white"/>
<path d="M306.69 41.3104L325.479 72.4009L360.854 64.1388L337.091 91.616L355.881 122.707L322.405 108.598L298.643 136.075L301.716 99.8781L268.241 85.7694L303.616 77.5072L306.69 41.3104Z" fill="white"/>
<path d="M563.751 42.3104L582.541 73.4009L617.916 65.1388L594.153 92.616L612.942 123.707L579.467 109.598L555.704 137.075L558.778 100.878L525.302 86.7694L560.678 78.5072L563.751 42.3104Z" fill="white"/>
<path d="M820.69 27.3104L839.479 58.4009L874.854 50.1388L851.091 77.616L869.881 108.707L836.405 94.5978L812.643 122.075L815.716 85.8781L782.241 71.7694L817.616 63.5072L820.69 27.3104Z" fill="white"/>
<path d="M1077.63 12.3104L1096.42 43.4009L1131.79 35.1388L1108.03 62.616L1126.82 93.7065L1093.34 79.5978L1069.58 107.075L1072.65 70.8781L1039.18 56.7694L1074.55 48.5072L1077.63 12.3104Z" fill="white"/>
<path d="M1334.57 -2.68961L1353.36 28.4009L1388.73 20.1388L1364.97 47.616L1383.76 78.7065L1350.28 64.5978L1326.52 92.075L1329.59 55.8781L1296.12 41.7694L1331.49 33.5072L1334.57 -2.68961Z" fill="white"/>
<path d="M137 13L142.837 30.9656H161.727L146.445 42.0689L152.282 60.0344L137 48.9311L121.718 60.0344L127.555 42.0689L112.273 30.9656H131.163L137 13Z" fill="white"/>
<path d="M394.062 14L399.899 31.9656H418.789L403.507 43.0689L409.344 61.0344L394.062 49.9311L378.779 61.0344L384.617 43.0689L369.334 31.9656H388.224L394.062 14Z" fill="white"/>
<path d="M651.123 15L656.961 32.9656H675.851L660.568 44.0689L666.406 62.0344L651.123 50.9311L635.841 62.0344L641.678 44.0689L626.396 32.9656H645.286L651.123 15Z" fill="white"/>
<path d="M908.062 0L913.899 17.9656H932.789L917.507 29.0689L923.344 47.0344L908.062 35.9311L892.779 47.0344L898.617 29.0689L883.334 17.9656H902.224L908.062 0Z" fill="white"/>
<path d="M1165 -15L1170.84 2.96556H1189.73L1174.44 14.0689L1180.28 32.0344L1165 20.9311L1149.72 32.0344L1155.55 14.0689L1140.27 2.96556H1159.16L1165 -15Z" fill="white"/>
<path d="M1421.94 -30L1427.78 -12.0344H1446.67L1431.38 -0.931116L1437.22 17.0344L1421.94 5.93112L1406.66 17.0344L1412.49 -0.931116L1397.21 -12.0344H1416.1L1421.94 -30Z" fill="white"/>
<path d="M165.353 125.452L165.414 140.087L179.351 144.551L165.452 149.131L165.513 163.765L156.862 151.962L142.962 156.542L151.515 144.667L142.863 132.864L156.8 137.328L165.353 125.452Z" fill="white"/>
<path d="M422.414 126.452L422.476 141.087L436.412 145.551L422.513 150.131L422.574 164.765L413.923 152.962L400.024 157.542L408.576 145.667L399.925 133.864L413.862 138.328L422.414 126.452Z" fill="white"/>
<path d="M679.476 127.452L679.537 142.087L693.474 146.551L679.575 151.131L679.636 165.765L670.985 153.962L657.086 158.542L665.638 146.667L656.987 134.864L670.924 139.328L679.476 127.452Z" fill="white"/>
<path d="M936.414 112.452L936.476 127.087L950.412 131.551L936.513 136.131L936.574 150.765L927.923 138.962L914.024 143.542L922.576 131.667L913.925 119.864L927.862 124.328L936.414 112.452Z" fill="white"/>
<path d="M1193.35 97.4524L1193.41 112.087L1207.35 116.551L1193.45 121.131L1193.51 135.765L1184.86 123.962L1170.96 128.542L1179.51 116.667L1170.86 104.864L1184.8 109.328L1193.35 97.4524Z" fill="white"/>
<path d="M198.206 47.239L210.193 55.6342L221.882 46.8282L217.602 60.8227L229.589 69.2179L214.956 69.4718L210.676 83.4664L205.913 69.6288L191.281 69.8827L202.969 61.0767L198.206 47.239Z" fill="white"/>
<path d="M455.268 48.239L467.255 56.6342L478.943 47.8282L474.663 61.8227L486.65 70.2179L472.018 70.4718L467.738 84.4664L462.975 70.6288L448.343 70.8827L460.031 62.0767L455.268 48.239Z" fill="white"/>
<path d="M712.33 49.239L724.317 57.6342L736.005 48.8282L731.725 62.8227L743.712 71.2179L729.08 71.4718L724.799 85.4664L720.036 71.6288L705.404 71.8827L717.093 63.0767L712.33 49.239Z" fill="white"/>
<path d="M969.268 34.239L981.255 42.6342L992.943 33.8282L988.663 47.8227L1000.65 56.2179L986.018 56.4718L981.738 70.4664L976.975 56.6288L962.343 56.8827L974.031 48.0767L969.268 34.239Z" fill="white"/>
<path d="M1226.21 19.239L1238.19 27.6342L1249.88 18.8282L1245.6 32.8227L1257.59 41.2179L1242.96 41.4718L1238.68 55.4664L1233.91 41.6288L1219.28 41.8827L1230.97 33.0767L1226.21 19.239Z" fill="white"/>
</svg>
